<?xml version="1.0" encoding="UTF-8"?>
<svg width="16px" height="16px" viewBox="0 0 16 16" version="1.1" xmlns="http://www.w3.org/2000/svg" xmlns:xlink="http://www.w3.org/1999/xlink">
    <!-- Generator: Sketch 61.2 (89653) - https://sketch.com -->
    <title>Icon/search</title>
    <desc>Created with Sketch.</desc>
    <g id="hifi" stroke="none" stroke-width="1" fill="none" fill-rule="evenodd">
        <g id="011_Home_search_mobile_375" transform="translate(-347.000000, -165.000000)" fill="#087C95">
            <g id="Icon/search" transform="translate(347.000000, 165.000000)">
                <g id="Group">
                    <path d="M11.2057961,12.6168208 L14.2949876,15.7034836 C14.6854752,16.0988388 15.3166468,16.0988388 15.7071344,15.7034836 C16.0976219,15.3081284 16.0976219,14.6685538 15.7071344,14.2731986 L12.6256862,11.1935002 C13.4971809,10.0254641 14.0131106,8.57653931 14.0131106,7.0071032 C14.0131106,3.13718696 10.876169,0 7.00655532,0 C3.13694167,0 0,3.13718696 0,7.0071032 C0,10.8770194 3.13694167,14.0142064 7.00655532,14.0142064 C8.5817732,14.0142064 10.0355807,13.4943463 11.2057961,12.6168208 L11.2057961,12.6168208 Z M7,12 C4.23857625,12 2,9.76142375 2,7 C2,4.23857625 4.23857625,2 7,2 C9.76142375,2 12,4.23857625 12,7 C12,9.76142375 9.76142375,12 7,12 L7,12 L7,12 Z" id="Loupe-Icon"></path>
                </g>
            </g>
        </g>
    </g>
</svg>