<?xml version="1.0" encoding="utf-8"?>
<!-- Generator: Adobe Illustrator 24.0.1, SVG Export Plug-In . SVG Version: 6.00 Build 0)  -->
<svg version="1.1" id="Layer_1" xmlns="http://www.w3.org/2000/svg" xmlns:xlink="http://www.w3.org/1999/xlink" x="0px" y="0px"
	 viewBox="0 0 1366 768" style="enable-background:new 0 0 1366 768;" xml:space="preserve">
<style type="text/css">
	.st0{fill:#FFFFFF;stroke:#007D98;stroke-width:3;stroke-miterlimit:10;}
	.st1{stroke:#000000;stroke-width:0.75;stroke-miterlimit:10;}
</style>
<g>
	<polygon class="st0" points="576.9,460.9 542,460.9 524.6,430.8 542,400.6 576.9,400.6 594.3,430.8 	"/>
	<polygon class="st1" points="553.2,401.5 555.2,415.5 554.2,422.1 536.7,430.9 553.7,426.3 550.4,439.3 543,441.3 551.7,441.3 
		550.6,454.3 558.5,416.6 567.1,429.1 563.6,443.1 569.4,431.7 576.6,443.1 572.7,432.5 586.6,429.8 572.2,429.3 561.7,413.9 
		561.7,401.5 	"/>
	<path d="M568.8,389.2c-0.1-0.1-0.2-0.3-0.4-0.5c-0.4-0.4-1.1-0.7-1.9-0.9c-0.8-0.2-1.7-0.2-2.6,0c-0.9,0.2-1.7,0.5-2.5,1
		c-0.7,0.5-1.4,1.1-1.9,1.7c-0.5,0.7-0.9,1.4-1.1,2.1c-0.2,0.7-0.3,1.4-0.3,1.9c0,0.1,0,0.1,0,0.2c0.3-0.4,0.6-0.7,0.9-1.1
		c0.3-0.3,0.6-0.6,0.9-0.9c0.3-0.3,0.6-0.5,1-0.8c0.3-0.2,0.7-0.4,1-0.6c0.3-0.2,0.6-0.3,0.9-0.4c0.3-0.1,0.6-0.2,0.8-0.2
		c0.2-0.1,0.5-0.1,0.7-0.1c0.4,0,0.6-0.1,0.6-0.1s-0.2,0-0.6,0.1c-0.2,0-0.4,0-0.6,0.1c-0.2,0.1-0.5,0.2-0.8,0.3
		c-0.3,0.1-0.6,0.3-0.9,0.5c-0.3,0.2-0.6,0.4-0.9,0.7c-0.3,0.3-0.6,0.5-0.9,0.8c-0.3,0.3-0.6,0.6-0.8,0.9c-0.4,0.5-0.7,0.9-1,1.4
		c0.4,0,1.7-0.2,2.3-0.2c0.6-0.1,1.3-0.2,2-0.5c0.7-0.2,1.3-0.5,1.9-0.9c1.2-0.7,2.1-1.7,2.8-2.7c0.3-0.5,0.7-0.9,1-1.2
		c0.1-0.1,0.3-0.3,0.4-0.4c0.1-0.1,0.2-0.1,0.2-0.1S568.8,389.4,568.8,389.2L568.8,389.2z M568.8,389.2"/>
	<path d="M555.7,393c-0.2-0.7-0.6-1.3-1.1-1.9c-0.5-0.6-1.1-1.2-1.8-1.6c-0.7-0.4-1.5-0.8-2.3-0.9c-0.8-0.2-1.7-0.2-2.4,0
		c-0.7,0.2-1.4,0.5-1.7,0.8c-0.2,0.2-0.3,0.3-0.4,0.4c-0.1,0.1-0.1,0.2-0.1,0.2s0.1,0,0.2,0.1c0.1,0.1,0.2,0.2,0.4,0.4
		c0.3,0.3,0.6,0.7,0.9,1.1c0.6,0.9,1.5,1.8,2.6,2.5c0.6,0.3,1.1,0.6,1.8,0.8c0.6,0.2,1.3,0.4,1.9,0.4c0.5,0.1,1.8,0.2,2.1,0.2
		c-0.3-0.4-0.6-0.9-0.9-1.3c-0.2-0.3-0.5-0.6-0.8-0.9c-0.3-0.3-0.5-0.5-0.8-0.8c-0.3-0.2-0.6-0.4-0.8-0.6c-0.3-0.2-0.6-0.3-0.8-0.5
		c-0.3-0.1-0.5-0.2-0.7-0.3c-0.2-0.1-0.4-0.1-0.6-0.1c-0.3-0.1-0.5-0.1-0.5-0.1s0.2,0,0.5,0.1c0.2,0,0.4,0,0.6,0.1
		c0.2,0.1,0.5,0.1,0.8,0.2c0.3,0.1,0.6,0.3,0.9,0.4c0.3,0.2,0.6,0.4,0.9,0.6c0.3,0.2,0.6,0.5,0.9,0.7c0.3,0.3,0.6,0.5,0.8,0.8
		c0.3,0.3,0.6,0.7,0.9,1c0-0.1,0-0.1,0-0.2C556,394.3,555.9,393.6,555.7,393L555.7,393z M555.7,393"/>
	<path d="M562.2,400.1c-1.9-0.4-3.5-0.5-4.9-0.5c0.1-1.2,0.2-3.6,0.4-3.8c0.1-0.2,0.3-0.4,0.6-0.6c0.1-0.1,0.2-0.2,0.2-0.3
		c0,0,0,0,0-0.1c-0.5,0.3-1.6,1.2-1.6,1.3c-0.3-0.3-0.7-0.7-1.3-1.2c0,0,0,0,0,0.1c0,0,0.1,0.2,0.2,0.3c0.2,0.2,0.4,0.4,0.6,0.6
		c0.2,0.3,0.3,0.5,0.4,0.5c0,0,0,2,0,3.2c-2.6,0-4.1,0.5-4.1,0.5 M557.6,394.5"/>
</g>
</svg>
