<?xml version="1.0" encoding="utf-8"?>
<!-- Generator: Adobe Illustrator 24.0.1, SVG Export Plug-In . SVG Version: 6.00 Build 0)  -->
<svg version="1.1" id="Layer_1" xmlns="http://www.w3.org/2000/svg" xmlns:xlink="http://www.w3.org/1999/xlink" x="0px" y="0px"
	 viewBox="0 0 1366 768" style="enable-background:new 0 0 1366 768;" xml:space="preserve">
<style type="text/css">
	.st0{stroke:#000000;stroke-width:2;stroke-miterlimit:10;}
	.st1{font-family:'GillSans-SemiBold';}
	.st2{font-size:86px;}
	.st3{fill:#FFFFFF;stroke:#007D98;stroke-width:3;stroke-miterlimit:10;}
	.st4{stroke:#000000;stroke-width:0.75;stroke-miterlimit:10;}
	.st5{font-size:103px;}
	.st6{font-size:87px;}
</style>
<text transform="matrix(1 0 0 1 547.5935 414.5352)" class="st0 st1 st2">R</text>
<g>
	<polygon class="st3" points="645.2,415.5 616.9,415.5 602.7,391 616.9,366.5 645.2,366.5 659.3,391 	"/>
	<polygon class="st4" points="625.9,367.2 627.6,378.6 626.7,384 612.5,391.1 626.4,387.4 623.7,397.9 617.6,399.6 624.7,399.6 
		623.8,410.1 630.2,379.5 637.2,389.6 634.4,401 639.1,391.7 644.9,401 641.8,392.4 653.1,390.2 641.4,389.7 632.8,377.3 
		632.8,367.2 	"/>
	<path d="M638.6,357.2c-0.1-0.1-0.2-0.3-0.3-0.4c-0.3-0.3-0.9-0.6-1.5-0.7c-0.6-0.1-1.4-0.1-2.1,0c-0.7,0.1-1.4,0.4-2,0.8
		c-0.6,0.4-1.1,0.9-1.6,1.4c-0.4,0.5-0.7,1.1-0.9,1.7c-0.2,0.6-0.3,1.1-0.3,1.6c0,0,0,0.1,0,0.1c0.2-0.3,0.5-0.6,0.8-0.9
		c0.2-0.3,0.5-0.5,0.7-0.7c0.2-0.2,0.5-0.4,0.8-0.6c0.3-0.2,0.5-0.3,0.8-0.5c0.3-0.1,0.5-0.2,0.8-0.3c0.2-0.1,0.5-0.1,0.7-0.2
		c0.2-0.1,0.4-0.1,0.5-0.1c0.3,0,0.5,0,0.5,0s-0.2,0-0.5,0.1c-0.1,0-0.3,0-0.5,0.1c-0.2,0.1-0.4,0.2-0.6,0.2
		c-0.2,0.1-0.5,0.3-0.7,0.4c-0.2,0.2-0.5,0.3-0.7,0.5c-0.2,0.2-0.5,0.4-0.7,0.7c-0.2,0.2-0.5,0.5-0.7,0.8c-0.3,0.4-0.6,0.8-0.8,1.1
		c0.3,0,1.4-0.1,1.9-0.2c0.5-0.1,1.1-0.2,1.6-0.4c0.5-0.2,1.1-0.4,1.5-0.7c1-0.6,1.7-1.4,2.3-2.2c0.3-0.4,0.5-0.7,0.8-1
		c0.1-0.1,0.2-0.2,0.3-0.3c0.1-0.1,0.1-0.1,0.1-0.1S638.6,357.3,638.6,357.2L638.6,357.2z M638.6,357.2"/>
	<path d="M627.9,360.3c-0.2-0.5-0.5-1.1-0.9-1.6c-0.4-0.5-0.9-1-1.4-1.3c-0.6-0.4-1.2-0.6-1.9-0.7c-0.7-0.1-1.4-0.1-2,0
		c-0.6,0.1-1.1,0.4-1.4,0.7c-0.1,0.1-0.2,0.3-0.3,0.4c-0.1,0.1-0.1,0.1-0.1,0.1s0,0,0.1,0.1c0.1,0.1,0.2,0.2,0.3,0.3
		c0.2,0.2,0.5,0.6,0.7,0.9c0.5,0.7,1.2,1.5,2.1,2c0.4,0.3,0.9,0.5,1.4,0.7c0.5,0.2,1,0.3,1.5,0.4c0.4,0.1,1.4,0.2,1.7,0.2
		c-0.2-0.4-0.5-0.7-0.8-1.1c-0.2-0.3-0.4-0.5-0.6-0.7c-0.2-0.2-0.4-0.4-0.7-0.6c-0.2-0.2-0.5-0.3-0.7-0.5c-0.2-0.1-0.5-0.3-0.7-0.4
		c-0.2-0.1-0.4-0.2-0.6-0.2c-0.2-0.1-0.3-0.1-0.5-0.1c-0.3,0-0.4-0.1-0.4-0.1s0.2,0,0.4,0c0.1,0,0.3,0,0.5,0.1
		c0.2,0.1,0.4,0.1,0.6,0.2c0.2,0.1,0.5,0.2,0.7,0.3c0.2,0.1,0.5,0.3,0.7,0.5c0.2,0.2,0.5,0.4,0.7,0.6c0.2,0.2,0.5,0.4,0.7,0.7
		c0.3,0.3,0.5,0.5,0.7,0.8c0,0,0-0.1,0-0.1C628.2,361.3,628.1,360.8,627.9,360.3L627.9,360.3z M627.9,360.3"/>
	<path d="M633.2,366c-1.5-0.3-2.9-0.4-4-0.4c0-1,0.2-2.9,0.3-3.1c0.1-0.1,0.3-0.3,0.4-0.5c0.1,0,0.2-0.2,0.1-0.2c0,0,0,0,0-0.1
		c-0.4,0.3-1.3,1-1.3,1c-0.2-0.2-0.6-0.6-1-1c0,0,0,0,0,0.1c0,0,0.1,0.2,0.1,0.2c0.2,0.2,0.3,0.3,0.4,0.5c0.2,0.2,0.3,0.4,0.3,0.4
		c0,0,0,1.7,0,2.6c-2.1,0-3.3,0.4-3.3,0.4 M629.5,361.5"/>
</g>
<text transform="matrix(1 0 0 1 661.5186 414.5351)"><tspan x="0" y="0" class="st0 st1 st5">o</tspan><tspan x="59" y="0" class="st0 st1 st6">T</tspan></text>
</svg>
