<?xml version="1.0" encoding="utf-8"?>
<!-- Generator: Adobe Illustrator 24.0.1, SVG Export Plug-In . SVG Version: 6.00 Build 0)  -->
<svg version="1.1" id="Layer_1" xmlns="http://www.w3.org/2000/svg" xmlns:xlink="http://www.w3.org/1999/xlink" x="0px" y="0px"
	 viewBox="0 0 1024 768" style="enable-background:new 0 0 1024 768;" xml:space="preserve">
<style type="text/css">
	.st0{display:none;}
	.st1{display:inline;fill:#007D98;}
	.st2{display:inline;}
	.st3{display:none;fill:#007D98;}
	.st4{font-family:'GillSans-SemiBold';}
	.st5{font-size:58.4498px;}
	.st6{display:none;fill:#231F20;}
	.st7{font-size:26.3462px;}
	.st8{fill:#FFFFFF;}
	.st9{display:none;fill:#231F20;stroke:#231F20;stroke-miterlimit:10;}
	.st10{fill:#FFFFFF;stroke:#007D98;stroke-width:3;stroke-miterlimit:10;}
	.st11{stroke:#000000;stroke-width:0.75;stroke-miterlimit:10;}
	.st12{stroke:#000000;stroke-width:2;stroke-miterlimit:10;}
	.st13{font-family:'MuktaMahee-SemiBold';}
	.st14{font-size:86px;}
</style>
<g class="st0">
	<path class="st1" d="M24.6,5.1c0,0,1.8,2.7,4,6.5s2.1,3.5,3.7,7.1c0,0,2,4.3,2.8,8.2s0.3,10.2,0.2,10.7c-0.1,0.5-1,5.4-1.4,9.7
		s-0.2,5.1,0,6.9l-10.5,0c0,0,0.4-3.4,0.6-4.1s1.5-6.4,2.9-9.3c0,0,0.9-2,1.6-4.3c0.7-2.3,1.1-3.6,1.5-7c0,0,0.3-3.1-0.2-6.2
		c-0.5-3.1-0.9-5.2-2-8.4C26.8,11.5,25,5.6,24.6,5.1z"/>
	<path class="st2" d="M23.6,53.5c0,0.1-0.1,0.1-0.1,0.2c-0.3,0.6-0.7,1-1.1,1.6c-0.2,0.2-0.5,0.4-0.7,0.6c-0.2,0.2-0.5,0.4-0.7,0.6
		c-0.5,0.4-1,0.9-1.4,1.5l-0.5,0.9c-0.2,0.3-0.3,0.6-0.4,1c-0.2,0.7-0.2,1.3-0.4,1.9c-0.2,0.6-0.5,1.1-0.9,1.5l0,0
		c-0.3,0.1-0.5,0.4-0.8,0.4c-0.3,0.1-0.7,0.1-1,0.2c-0.7,0.1-1.4,0.3-2,0.5c-1.2,0.4-2.4,0.7-3.7,1.1l0.1-0.1l-0.4,0.2
		c0,0,0,0-0.1,0l0,0l0,0.1c1.4-0.3,2.7-0.6,4.1-0.9c0.7-0.2,1.3-0.3,2-0.4c0.4,0,0.7,0,1.1-0.1c0.4,0,0.7-0.3,1-0.5
		c0.1-0.1,0.2-0.2,0.3-0.3c0,0.2,0,0.5-0.1,0.7c0,0.3,0,0.5-0.1,0.8c0,0.6-0.1,1-0.4,1.3c-0.3,0.3-0.7,0.5-1.1,0.7
		c-0.7,0.4-1.1,0.8-1.1,0.8c0,0,0.5-0.2,1.2-0.4c0.4-0.2,0.9-0.2,1.3-0.6c0.4-0.4,0.6-1.1,0.6-1.6c0-0.3,0-0.6,0-0.8
		c0-0.3,0-0.5,0-0.7c0-0.4,0.1-0.8,0.2-1.1c0-0.1,0.1-0.2,0.1-0.3c0.2-0.7,0.3-1.3,0.5-1.9c0.1-0.3,0.2-0.6,0.3-0.8l0.5-0.9
		c0.4-0.5,0.8-0.9,1.3-1.3c0.2-0.2,0.5-0.4,0.7-0.7c0.2-0.3,0.5-0.4,0.7-0.7c0.4-0.5,0.8-1,1-1.7c0.1-0.1,0.1-0.3,0.2-0.4H29
		c-0.1,0-0.1,0.1-0.1,0.1c-0.3,0.3-0.7,0.7-1,1.2c-0.2,0.5-0.5,0.9-0.6,1.5c-0.1,0.6-0.2,1.1-0.4,1.7l1.4-3.1L26.5,59
		c0,0-0.1,0.1-0.1,0.1l-0.3,0.4c-0.3,0.5-0.8,0.9-1.2,1.3c-0.4,0.4-0.9,0.8-1.2,1.3c-0.4,0.5-0.6,1-0.8,1.5
		c-0.2,0.5-0.3,0.9-0.6,1.2c-0.2,0.3-0.6,0.6-0.9,0.8c-0.3,0.2-0.6,0.4-0.8,0.6c-0.4,0.3-0.6,0.5-0.6,0.6c0,0,0.2-0.2,0.7-0.5
		c0.2-0.1,0.5-0.3,0.8-0.4c0.3-0.2,0.7-0.4,1-0.8c0.3-0.3,0.6-0.8,0.8-1.3c0.2-0.5,0.5-0.9,0.8-1.4c0.2-0.4,0.7-0.8,1.1-1.1
		c-0.1,0.2-0.3,0.4-0.3,0.8c-0.2,0.8-0.1,1.7,0.1,2.6c0.2,0.9,0.3,1.8,0.2,2.5c0,0.3-0.1,0.6-0.1,0.8c0,0.2-0.1,0.3-0.1,0.3
		s0.1-0.1,0.2-0.3c0.1-0.2,0.3-0.4,0.4-0.8c0.1-0.4,0.2-0.8,0.2-1.2c0-0.5-0.1-0.9-0.1-1.4c-0.1-0.5-0.2-1-0.3-1.5
		c0.3,1.1,1,2.4,1.6,3.7c0.7,1.3,1.5,2.7,1.8,3.7c0.2,0.5,0.3,1,0.3,1.3c-0.1,0.3-0.1,0.5-0.1,0.5s0.1-0.2,0.2-0.5
		c0.1-0.3,0.1-0.8,0-1.4c-0.2-1.2-0.9-2.6-1.6-3.9c-0.7-1.3-1.5-2.7-1.9-3.7c-0.2-0.5-0.3-1-0.4-1.3c0-0.1,0-0.2,0-0.3
		c0.4-0.4,0.9-0.8,1.2-1.3l0.3-0.4c0.1-0.1,0.1-0.1,0.2-0.2l0.1-0.2l0.3-0.9c0.1-0.6,0.2-1.1,0.3-1.7c0.1-0.5,0.3-1,0.5-1.5
		c0.2-0.4,0.5-0.8,0.8-1.1c0.1-0.1,0.2-0.3,0.4-0.4h2.7c-0.1,0.2-0.3,0.4-0.4,0.7c-0.2,0.4-0.3,0.8-0.4,1.4c-0.1,0.3,0,0.5-0.1,0.8
		c0,0.3,0,0.5-0.1,0.8c0,0.6-0.1,1-0.4,1.3c-0.3,0.3-0.7,0.5-1.1,0.7c-0.7,0.4-1.1,0.8-1.1,0.8c0,0,0.5-0.2,1.2-0.4
		c0.4-0.2,0.9-0.2,1.3-0.6c0.4-0.4,0.6-1.1,0.6-1.6c0-0.3,0-0.6,0-0.8c0-0.3,0-0.5,0-0.7c0.1-0.5,0.1-0.9,0.2-1.3
		c0.1-0.3,0.1-0.6,0.2-0.8"/>
	<path class="st2" d="M32.1,58.6c-0.1-0.4-0.2-0.7-0.2-0.7s-0.1,0.3-0.1,0.8c-0.1,0.5,0,1,0,1.6c0.1,0.6,0.2,1.1,0.2,1.6
		c0.1,0.5,0.1,0.8,0.1,0.8s0.1-0.3,0.2-0.7c0.2-0.4,0.1-1.1,0.1-1.7C32.4,59.7,32.2,59.1,32.1,58.6L32.1,58.6z"/>
	<path class="st2" d="M19.5,60.4c-0.1-0.4-0.2-0.7-0.2-0.7s-0.1,0.3-0.1,0.8c-0.1,0.5,0-0.9,0-0.4c0,0.6,0.2,3.1,0.2,3.6
		c0.1,0.5,0.1,0.8,0.1,0.8s0.1-0.3,0.2-0.7c0.2-0.4,0.1-1.1,0.1-1.7C19.8,61.4,19.6,60.8,19.5,60.4L19.5,60.4z"/>
	<path class="st2" d="M37.9,62.5c-0.2-0.1-0.4-0.3-0.6-0.5c-0.2-0.2-0.3-0.4-0.5-0.7c-0.4-0.4-0.6-1.1-1.1-1.6L35,59.1
		c-0.3-0.2-0.5-0.4-0.8-0.6c-0.5-0.4-1-0.6-1.5-0.8c-0.9-0.4-1.5-0.7-1.5-0.7s0.5,0.4,1.3,1c0.4,0.3,0.9,0.6,1.3,1
		c0.2,0.2,0.5,0.4,0.7,0.6l0.6,0.7c0.5,0.4,0.7,1,1.1,1.5c0.4,0.5,0.9,0.9,1.3,1.1c0.9,0.4,1.3,0.9,1.3,0.9s-0.1-0.1-0.3-0.4
		C38.6,63.1,38.3,62.8,37.9,62.5L37.9,62.5z"/>
	<path class="st2" d="M13.9,61.4l0.9,0c0.3,0.1,0.6,0.1,0.9,0.2c0.6,0.1,1.1,0.2,1.6,0.4c1,0.2,0.6,0.3,0.6,0.3s0.4-0.3-0.5-0.6
		c-0.5-0.2-1-0.4-1.6-0.6c-0.3-0.1-0.6-0.2-0.9-0.2l-1-0.1c-0.7-0.1-1.3,0.2-1.9,0.2c-0.6,0.1-1.1,0.1-1.6,0
		c-0.5-0.1-0.9-0.1-1.2-0.1c-0.3,0-0.5,0.1-0.5,0.1s0.6,0,1.6,0.4c0.5,0.2,1,0.3,1.7,0.3C12.7,61.5,13.3,61.3,13.9,61.4L13.9,61.4z"
		/>
	<path class="st2" d="M33.8,54.7c0.2,0.4,0.4,0.9,0.7,1.3c0.4,0.9,0.7,1.9,1.4,2.7l0,0l0,0c0.4,0.3,0.7,0.6,1.1,0.8l1.1,0.6
		c0.4,0.2,0.7,0.4,1.1,0.6c0.2,0.1,0.4,0.2,0.5,0.4l0.4,0.4c0.3,0.3,0.4,0.7,0.6,1.1c0.2,0.4,0.3,0.9,0.5,1.2
		c0.1,0.2,0.2,0.4,0.4,0.6c0.2,0.2,0.4,0.4,0.6,0.4c0.4,0.2,0.8,0.4,1.2,0.6L44,66l0.4,0.3c0,0,0.1,0,0.1,0.1c0,0,0.1,0.1,0.1,0.1
		c0-0.1-0.1-0.1-0.1-0.2l-0.3-0.3l-0.7-0.6l0,0l0,0c-0.4-0.3-0.8-0.4-1.1-0.7c-0.2-0.1-0.3-0.3-0.4-0.4l-0.3-0.5
		c-0.2-0.4-0.3-0.8-0.4-1.2c-0.2-0.4-0.3-0.9-0.6-1.2l-0.5-0.5c-0.1-0.2-0.4-0.3-0.5-0.4c-0.1-0.1-0.2-0.1-0.3-0.2
		c0.1,0,0.2,0,0.4,0.1c0.3,0.1,0.7,0.1,1.2,0.3c0.5,0.2,1,0.4,1.6,0.7c0.6,0.2,1.2,0.6,1.8,0.9c1.2,0.6,2.4,1.3,3.4,1.7
		c1,0.4,1.7,0.5,1.7,0.5s-0.6-0.3-1.5-0.9c-0.9-0.5-2-1.3-3.3-1.9c-0.6-0.3-1.2-0.6-1.9-0.9c-0.6-0.3-1.2-0.4-1.7-0.5
		c-0.5-0.2-1-0.1-1.3-0.1c-0.2,0-0.4,0-0.4,0c-0.3-0.2-0.5-0.3-0.8-0.5L37.3,59c-0.4-0.2-0.7-0.5-1-0.7c-0.6-0.7-1-1.6-1.5-2.5
		c-0.2-0.4-0.5-0.9-0.8-1.3c-0.1-0.2-0.3-0.4-0.5-0.6c-0.2-0.2-0.4-0.3-0.6-0.4c0.2,0.2,0.4,0.3,0.6,0.5
		C33.6,54.3,33.7,54.4,33.8,54.7L33.8,54.7z"/>
</g>
<text transform="matrix(1 0 0 1 19.1246 54.114)" class="st3 st4 st5">R</text>
<text transform="matrix(1 0 0 1 51.9228 53.4623)" class="st6 st4 st7">OOTS</text>
<path class="st8" d="M24.5,4.9c0,0,3.6,9.5,4.5,14.4c0.5,2.8,0.8,4.4,0.9,6.3c0.1,2.2-0.1,4-0.3,5.4c-0.1,0.9-0.2,1.8-0.4,2.6
	c-0.1,0.5-0.2,1.1-0.4,1.6c0,0-0.2,0.6-0.4,1.3c-0.7,2.1-3.3,8.1-3.9,10.3c-0.1,0.6-0.5,2.3-0.6,2.6c0,0.1,0,0.2,0,0.2
	c0,0.2-0.1,0.3-0.1,0.5c-0.2,1.1-0.4,2.4-0.6,3.8l-13.7,0V4.9H24.5z"/>
<path class="st8" d="M24.1,49.6"/>
<path class="st9" d="M127,54.3H24c-0.1,0-0.2-0.1-0.2-0.2V54c0-0.1,0.1-0.2,0.2-0.2h103c0.1,0,0.2,0.1,0.2,0.2v0.1
	C127.1,54.2,127.1,54.3,127,54.3z"/>
<g>
	<polygon class="st10" points="144.9,308.9 110.1,308.9 92.7,278.7 110.1,248.5 144.9,248.5 162.3,278.7 	"/>
	<polygon class="st11" points="121.2,249.4 123.2,263.5 122.2,270.1 104.8,278.8 121.8,274.3 118.5,287.2 111,289.2 119.8,289.2 
		118.7,302.2 126.5,264.6 135.1,277 131.6,291.1 137.5,279.6 144.6,291.1 140.8,280.5 154.7,277.7 140.2,277.2 129.7,261.8 
		129.7,249.4 	"/>
	<path d="M136.8,237.2c-0.1-0.1-0.2-0.3-0.4-0.5c-0.4-0.4-1.1-0.7-1.9-0.9c-0.8-0.2-1.7-0.2-2.6,0c-0.9,0.2-1.7,0.5-2.5,1
		c-0.7,0.5-1.4,1.1-1.9,1.7c-0.5,0.7-0.9,1.4-1.1,2.1c-0.2,0.7-0.3,1.4-0.3,1.9c0,0.1,0,0.1,0,0.2c0.3-0.4,0.6-0.7,0.9-1.1
		c0.3-0.3,0.6-0.6,0.9-0.9c0.3-0.3,0.6-0.5,1-0.8c0.3-0.2,0.7-0.4,1-0.6c0.3-0.2,0.6-0.3,0.9-0.4c0.3-0.1,0.6-0.2,0.8-0.2
		c0.2-0.1,0.5-0.1,0.7-0.1c0.4,0,0.6-0.1,0.6-0.1s-0.2,0-0.6,0.1c-0.2,0-0.4,0-0.6,0.1c-0.2,0.1-0.5,0.2-0.8,0.3
		c-0.3,0.1-0.6,0.3-0.9,0.5c-0.3,0.2-0.6,0.4-0.9,0.7c-0.3,0.3-0.6,0.5-0.9,0.8c-0.3,0.3-0.6,0.6-0.8,0.9c-0.4,0.5-0.7,0.9-1,1.4
		c0.4,0,1.7-0.2,2.3-0.2c0.6-0.1,1.3-0.2,2-0.5c0.7-0.2,1.3-0.5,1.9-0.9c1.2-0.7,2.1-1.7,2.8-2.7c0.3-0.5,0.7-0.9,1-1.2
		c0.1-0.1,0.3-0.3,0.4-0.4c0.1-0.1,0.2-0.1,0.2-0.1S136.9,237.3,136.8,237.2L136.8,237.2z M136.8,237.2"/>
	<path d="M123.7,240.9c-0.2-0.7-0.6-1.3-1.1-1.9c-0.5-0.6-1.1-1.2-1.8-1.6c-0.7-0.4-1.5-0.8-2.3-0.9c-0.8-0.2-1.7-0.2-2.4,0
		c-0.7,0.2-1.4,0.5-1.7,0.8c-0.2,0.2-0.3,0.3-0.4,0.4c-0.1,0.1-0.1,0.2-0.1,0.2s0.1,0,0.2,0.1c0.1,0.1,0.2,0.2,0.4,0.4
		c0.3,0.3,0.6,0.7,0.9,1.1c0.6,0.9,1.5,1.8,2.6,2.5c0.6,0.3,1.1,0.6,1.8,0.8c0.6,0.2,1.3,0.4,1.9,0.4c0.5,0.1,1.8,0.2,2.1,0.2
		c-0.3-0.4-0.6-0.9-0.9-1.3c-0.2-0.3-0.5-0.6-0.8-0.9c-0.3-0.3-0.5-0.5-0.8-0.8c-0.3-0.2-0.6-0.4-0.8-0.6c-0.3-0.2-0.6-0.3-0.8-0.5
		c-0.3-0.1-0.5-0.2-0.7-0.3c-0.2-0.1-0.4-0.1-0.6-0.1c-0.3-0.1-0.5-0.1-0.5-0.1s0.2,0,0.5,0.1c0.2,0,0.4,0,0.6,0.1
		c0.2,0.1,0.5,0.1,0.8,0.2c0.3,0.1,0.6,0.3,0.9,0.4c0.3,0.2,0.6,0.4,0.9,0.6c0.3,0.2,0.6,0.5,0.9,0.7c0.3,0.3,0.6,0.5,0.8,0.8
		c0.3,0.3,0.6,0.7,0.9,1c0-0.1,0-0.1,0-0.2C124,242.2,123.9,241.6,123.7,240.9L123.7,240.9z M123.7,240.9"/>
	<path d="M130.2,248c-1.9-0.4-3.5-0.5-4.9-0.5c0.1-1.2,0.2-3.6,0.4-3.8c0.1-0.2,0.3-0.4,0.6-0.6c0.1-0.1,0.2-0.2,0.2-0.3
		c0,0,0,0,0-0.1c-0.5,0.3-1.6,1.2-1.6,1.3c-0.3-0.3-0.7-0.7-1.3-1.2c0,0,0,0,0,0.1c0,0,0.1,0.2,0.2,0.3c0.2,0.2,0.4,0.4,0.6,0.6
		c0.2,0.3,0.3,0.5,0.4,0.5c0,0,0,2,0,3.2c-2.6,0-4.1,0.5-4.1,0.5 M125.6,242.4"/>
</g>
<text transform="matrix(1 0 0 1 160.9745 305.0106)" class="st12 st13 st14">ROOTS</text>
</svg>
